0
SECTION
2
HEADER
9
$INSUNITS
70
4
9
$ACADVER
1
AC1014
9
$HANDSEED
5
FFFF
0
ENDSEC
0
SECTION
2
TABLES
0
TABLE
2
VPORT
5
8
100
AcDbSymbolTable
0
ENDTAB
0
TABLE
2
LTYPE
5
5
100
AcDbSymbolTable
70
2
0
LTYPE
5
14
100
AcDbSymbolTableRecord
100
AcDbLinetypeTableRecord
2
BYBLOCK
70
0
0
LTYPE
5
15
100
AcDbSymbolTableRecord
100
AcDbLinetypeTableRecord
2
BYLAYER
70
0
0
ENDTAB
0
TABLE
2
LAYER
5
2
100
AcDbSymbolTable
70
3
0
LAYER
5
50
100
AcDbSymbolTableRecord
100
AcDbLayerTableRecord
2
0
70
0
6
CONTINUOUS
0
LAYER
5
51
100
AcDbSymbolTableRecord
100
AcDbLayerTableRecord
2
CUTOUTS
70
0
62
1
6
CONTINUOUS
0
LAYER
5
52
100
AcDbSymbolTableRecord
100
AcDbLayerTableRecord
2
PERIMETER
70
0
62
5
6
CONTINUOUS
0
ENDTAB
0
TABLE
2
STYLE
5
3
100
AcDbSymbolTable
70
1
0
STYLE
5
11
100
AcDbSymbolTableRecord
100
AcDbTextStyleTableRecord
2
STANDARD
70
0
0
ENDTAB
0
TABLE
2
VIEW
5
6
100
AcDbSymbolTable
0
ENDTAB
0
TABLE
2
UCS
5
7
100
AcDbSymbolTable
0
ENDTAB
0
TABLE
2
APPID
5
9
100
AcDbSymbolTable
70
1
0
APPID
5
12
100
AcDbSymbolTableRecord
100
AcDbRegAppTableRecord
2
ACAD
70
0
0
ENDTAB
0
TABLE
2
DIMSTYLE
5
A
100
AcDbSymbolTable
0
ENDTAB
0
TABLE
2
BLOCK_RECORD
5
1
100
AcDbSymbolTable
70
2
0
BLOCK_RECORD
5
1F
100
AcDbSymbolTableRecord
100
AcDbBlockTableRecord
2
*MODEL_SPACE
0
BLOCK_RECORD
5
1B
100
AcDbSymbolTableRecord
100
AcDbBlockTableRecord
2
*PAPER_SPACE
0
ENDTAB
0
ENDSEC
0
SECTION
2
BLOCKS
0
BLOCK
5
20
100
AcDbEntity
100
AcDbBlockBegin
2
*MODEL_SPACE
0
ENDBLK
5
21
100
AcDbEntity
100
AcDbBlockEnd
0
BLOCK
5
1C
100
AcDbEntity
100
AcDbBlockBegin
2
*PAPER_SPACE
0
ENDBLK
5
1D
100
AcDbEntity
100
AcDbBlockEnd
0
ENDSEC
0
SECTION
2
ENTITIES
0
CIRCLE
5
100
100
AcDbEntity
8
CUTOUTS
100
AcDbCircle
10
-94.540796180009892
20
-68.705475629933389
30
0
40
4.0000000000000036
210
0
220
0
230
1
0
CIRCLE
5
101
100
AcDbEntity
8
CUTOUTS
100
AcDbCircle
10
116.86917609838088
20
0.01421165663152172
30
0
40
4.0000000000000036
210
0
220
0
230
1
0
CIRCLE
5
102
100
AcDbEntity
8
CUTOUTS
100
AcDbCircle
10
-94.55750298436719
20
68.682480686467144
30
0
40
4.0000000000000036
210
0
220
0
230
1
0
CIRCLE
5
103
100
AcDbEntity
8
CUTOUTS
100
AcDbCircle
10
36.101045444351364
20
111.15358312582829
30
0
40
3.9999999999999991
210
0
220
0
230
1
0
CIRCLE
5
104
100
AcDbEntity
8
CUTOUTS
100
AcDbCircle
10
36.128077621644856
20
-111.14479983899358
30
0
40
4.0000000000000036
210
0
220
0
230
1
0
CIRCLE
5
105
100
AcDbEntity
8
CUTOUTS
100
AcDbCircle
10
0
20
0
30
0
40
4
210
0
220
0
230
1
0
LWPOLYLINE
5
106
100
AcDbEntity
8
CUTOUTS
100
AcDbPolyline
90
4
70
1
43
0.0
10
-124.99756701337871
20
-26.015200242213524
10
-124.99756701337873
20
-20.015200242213517
10
-69.177567013378706
20
-20.015200242213528
10
-69.177567013378706
20
-26.015200242213517
0
LWPOLYLINE
5
107
100
AcDbEntity
8
CUTOUTS
100
AcDbPolyline
90
4
70
1
43
0.0
10
-69.182431138206667
20
25.984799462040115
10
-69.182431138206653
20
19.984799462040101
10
-125.0024311382066
20
19.984799462040101
10
-125.00243113820667
20
25.984799462040115
0
LWPOLYLINE
5
108
100
AcDbEntity
8
CUTOUTS
100
AcDbPolyline
90
4
70
1
43
0.0
10
-19.59078584734587
20
-125.06478764977551
10
-2.3414572213362805
20
-71.976812910180016
10
3.3648818764346267
20
-73.83091487642973
10
-13.884446749574934
20
-126.91888961602518
0
LWPOLYLINE
5
109
100
AcDbEntity
8
CUTOUTS
100
AcDbPolyline
90
4
70
1
43
0.0
10
-46.091559786876452
20
-57.766657317936804
10
-40.385220689105516
20
-59.620759284186484
10
-57.634549315115073
20
-112.70873402378193
10
-63.340888412886031
20
-110.85463205753229
0
LWPOLYLINE
5
10A
100
AcDbEntity
8
CUTOUTS
100
AcDbPolyline
90
4
70
1
43
0.0
10
-40.412630451955287
20
59.606738868856965
10
-46.118969549726202
20
57.752636902607286
10
-63.368298175735745
20
110.84061164220276
10
-57.661959077964831
20
112.69471360845245
0
LWPOLYLINE
5
10B
100
AcDbEntity
8
CUTOUTS
100
AcDbPolyline
90
4
70
1
43
0.0
10
67.716532896793467
20
24.49637034681168
10
112.87586152280298
20
57.306543129777509
10
116.4025730365579
20
52.452441163527851
10
71.243244410548328
20
19.642268380561994
0
LWPOLYLINE
5
10C
100
AcDbEntity
8
CUTOUTS
100
AcDbPolyline
90
4
70
1
43
0.0
10
67.730466867388984
20
-24.468916538169974
10
71.257178381143802
20
-19.614814571920295
10
116.41650700715334
20
-52.424987354886134
10
112.88979549339854
20
-57.279089321135842
0
LWPOLYLINE
5
10D
100
AcDbEntity
8
CUTOUTS
100
AcDbPolyline
90
4
70
1
43
0.0
10
44.222992109173987
20
-56.832455134743192
10
89.38232073518347
20
-89.642627917709007
10
85.855609221428722
20
-94.49672988395875
10
40.696280595419132
20
-61.686557100992886
0
LWPOLYLINE
5
10E
100
AcDbEntity
8
CUTOUTS
100
AcDbPolyline
90
4
70
1
43
0.0
10
3.3344659191156811
20
73.82614657632756
10
-2.3718731786552549
20
71.972044610077887
10
-19.621201804664789
20
125.06001934967333
10
-13.914862706893869
20
126.91412131592308
0
LWPOLYLINE
5
10F
100
AcDbEntity
8
CUTOUTS
100
AcDbPolyline
90
4
70
1
43
0.0
10
44.201187819281344
20
56.854190821706567
10
40.674476305526504
20
61.708292787956253
10
85.833804931536093
20
94.518465570922103
10
89.360516445290941
20
89.664363604672417
0
LWPOLYLINE
5
110
100
AcDbEntity
8
PERIMETER
100
AcDbPolyline
90
10
70
1
43
0.0
10
-135.00675500595764
20
55.541401610498838
10
-134.9932447290841
20
-55.559996911328213
10
-94.542393578087001
20
-111.23581710323116
10
11.125490360753965
20
-145.55518830844179
10
76.576342396930073
20
-124.28891734666254
10
141.86917591353938
20
-34.398056702180178
10
141.86917591353938
20
34.421041758067254
10
76.554482309751293
20
124.29602011954834
10
11.103630273575193
20
145.56229108132757
10
-94.555903854960548
20
111.21722180240181
0
ENDSEC
0
SECTION
2
OBJECTS
0
DICTIONARY
5
C
100
AcDbDictionary
3
ACAD_GROUP
350
D
3
ACAD_MLINESTYLE
350
17
0
DICTIONARY
5
D
100
AcDbDictionary
0
DICTIONARY
5
1A
330
C
100
AcDbDictionary
0
DICTIONARY
5
17
100
AcDbDictionary
0
ENDSEC
0
EOF
