0
SECTION
2
HEADER
9
$INSUNITS
70
4
9
$ACADVER
1
AC1014
9
$HANDSEED
5
FFFF
0
ENDSEC
0
SECTION
2
TABLES
0
TABLE
2
VPORT
5
8
100
AcDbSymbolTable
0
ENDTAB
0
TABLE
2
LTYPE
5
5
100
AcDbSymbolTable
70
2
0
LTYPE
5
14
100
AcDbSymbolTableRecord
100
AcDbLinetypeTableRecord
2
BYBLOCK
70
0
0
LTYPE
5
15
100
AcDbSymbolTableRecord
100
AcDbLinetypeTableRecord
2
BYLAYER
70
0
0
ENDTAB
0
TABLE
2
LAYER
5
2
100
AcDbSymbolTable
70
3
0
LAYER
5
50
100
AcDbSymbolTableRecord
100
AcDbLayerTableRecord
2
0
70
0
6
CONTINUOUS
0
LAYER
5
51
100
AcDbSymbolTableRecord
100
AcDbLayerTableRecord
2
CUTOUTS
70
0
62
1
6
CONTINUOUS
0
LAYER
5
52
100
AcDbSymbolTableRecord
100
AcDbLayerTableRecord
2
PERIMETER
70
0
62
5
6
CONTINUOUS
0
ENDTAB
0
TABLE
2
STYLE
5
3
100
AcDbSymbolTable
70
1
0
STYLE
5
11
100
AcDbSymbolTableRecord
100
AcDbTextStyleTableRecord
2
STANDARD
70
0
0
ENDTAB
0
TABLE
2
VIEW
5
6
100
AcDbSymbolTable
0
ENDTAB
0
TABLE
2
UCS
5
7
100
AcDbSymbolTable
0
ENDTAB
0
TABLE
2
APPID
5
9
100
AcDbSymbolTable
70
1
0
APPID
5
12
100
AcDbSymbolTableRecord
100
AcDbRegAppTableRecord
2
ACAD
70
0
0
ENDTAB
0
TABLE
2
DIMSTYLE
5
A
100
AcDbSymbolTable
0
ENDTAB
0
TABLE
2
BLOCK_RECORD
5
1
100
AcDbSymbolTable
70
2
0
BLOCK_RECORD
5
1F
100
AcDbSymbolTableRecord
100
AcDbBlockTableRecord
2
*MODEL_SPACE
0
BLOCK_RECORD
5
1B
100
AcDbSymbolTableRecord
100
AcDbBlockTableRecord
2
*PAPER_SPACE
0
ENDTAB
0
ENDSEC
0
SECTION
2
BLOCKS
0
BLOCK
5
20
100
AcDbEntity
100
AcDbBlockBegin
2
*MODEL_SPACE
0
ENDBLK
5
21
100
AcDbEntity
100
AcDbBlockEnd
0
BLOCK
5
1C
100
AcDbEntity
100
AcDbBlockBegin
2
*PAPER_SPACE
0
ENDBLK
5
1D
100
AcDbEntity
100
AcDbBlockEnd
0
ENDSEC
0
SECTION
2
ENTITIES
0
CIRCLE
5
100
100
AcDbEntity
8
CUTOUTS
100
AcDbCircle
10
96.032621045868609
20
-55.435764632868015
30
0
40
4.0000000000000036
210
0
220
0
230
1
0
CIRCLE
5
101
100
AcDbEntity
8
CUTOUTS
100
AcDbCircle
10
96.025090973212954
20
55.448807101292303
30
0
40
4.0000000000000036
210
0
220
0
230
1
0
CIRCLE
5
102
100
AcDbEntity
8
CUTOUTS
100
AcDbCircle
10
0
20
0
30
0
40
4
210
0
220
0
230
1
0
CIRCLE
5
103
100
AcDbEntity
8
CUTOUTS
100
AcDbCircle
10
-96.032621045868609
20
55.435764632868015
30
0
40
4.0000000000000036
210
0
220
0
230
1
0
CIRCLE
5
104
100
AcDbEntity
8
CUTOUTS
100
AcDbCircle
10
-96.025090973212912
20
-55.448807101292338
30
0
40
4.0000000000000036
210
0
220
0
230
1
0
CIRCLE
5
105
100
AcDbEntity
8
CUTOUTS
100
AcDbCircle
10
-0.0075300726556075601
20
110.88457173416035
30
0
40
4
210
0
220
0
230
1
0
CIRCLE
5
106
100
AcDbEntity
8
CUTOUTS
100
AcDbCircle
10
0.0075300726556691141
20
-110.88457173416035
30
0
40
4
210
0
220
0
230
1
0
LWPOLYLINE
5
107
100
AcDbEntity
8
CUTOUTS
100
AcDbPolyline
90
4
70
1
43
0.0
10
51.898559592767626
20
49.921343130234462
10
79.808559592767637
20
98.262881169481787
10
85.004712015474297
20
95.26288116948183
10
57.094712015474265
20
46.921343130234462
0
LWPOLYLINE
5
108
100
AcDbEntity
8
CUTOUTS
100
AcDbPolyline
90
4
70
1
43
0.0
10
-124.99756701337876
20
-20.015200242213513
10
-69.17756701337872
20
-20.015200242213531
10
-69.17756701337872
20
-26.01520024221351
10
-124.99756701337873
20
-26.015200242213528
0
LWPOLYLINE
5
109
100
AcDbEntity
8
CUTOUTS
100
AcDbPolyline
90
4
70
1
43
0.0
10
17.255111635099993
20
69.917130526693114
10
12.058959212393372
20
72.9171305266931
10
39.968959212393372
20
121.25866856594044
10
45.165111635100025
20
118.25866856594047
0
LWPOLYLINE
5
10A
100
AcDbEntity
8
CUTOUTS
100
AcDbPolyline
90
4
70
1
43
0.0
10
-51.922455378278713
20
49.901930284479647
10
-57.11860780098533
20
46.901930284479647
10
-85.028607800985299
20
95.243468323727029
10
-79.832455378278667
20
98.243468323727043
0
LWPOLYLINE
5
10B
100
AcDbEntity
8
CUTOUTS
100
AcDbPolyline
90
4
70
1
43
0.0
10
-17.283871545438974
20
69.906142592274591
10
-45.193871545438924
20
118.24768063152194
10
-39.997719122732306
20
121.247680631522
10
-12.087719122732334
20
72.906142592274605
0
LWPOLYLINE
5
10C
100
AcDbEntity
8
CUTOUTS
100
AcDbPolyline
90
4
70
1
43
0.0
10
-51.898559592767661
20
-49.92134313023449
10
-79.808559592767637
20
-98.262881169481801
10
-85.004712015474297
20
-95.262881169481872
10
-57.0947120154743
20
-46.921343130234483
0
LWPOLYLINE
5
10D
100
AcDbEntity
8
CUTOUTS
100
AcDbPolyline
90
4
70
1
43
0.0
10
17.283871545438984
20
-69.906142592274591
10
45.193871545438938
20
-118.24768063152194
10
39.997719122732335
20
-121.247680631522
10
12.087719122732343
20
-72.906142592274605
0
LWPOLYLINE
5
10E
100
AcDbEntity
8
CUTOUTS
100
AcDbPolyline
90
4
70
1
43
0.0
10
69.182431138206638
20
-25.984799462040122
10
69.182431138206638
20
-19.984799462040108
10
125.00243113820659
20
-19.984799462040108
10
125.00243113820666
20
-25.98479946204014
0
LWPOLYLINE
5
10F
100
AcDbEntity
8
CUTOUTS
100
AcDbPolyline
90
4
70
1
43
0.0
10
69.177567013378692
20
20.015200242213524
10
69.177567013378692
20
26.01520024221351
10
124.9975670133787
20
26.01520024221351
10
124.99756701337871
20
20.015200242213503
0
LWPOLYLINE
5
110
100
AcDbEntity
8
CUTOUTS
100
AcDbPolyline
90
4
70
1
43
0.0
10
-69.182431138206681
20
25.984799462040115
10
-69.182431138206667
20
19.984799462040101
10
-125.00243113820662
20
19.984799462040108
10
-125.0024311382067
20
25.984799462040122
0
LWPOLYLINE
5
111
100
AcDbEntity
8
CUTOUTS
100
AcDbPolyline
90
4
70
1
43
0.0
10
-17.255111635100032
20
-69.917130526693143
10
-12.05895921239339
20
-72.917130526693114
10
-39.968959212393386
20
-121.25866856594047
10
-45.165111635100033
20
-118.2586685659405
0
LWPOLYLINE
5
112
100
AcDbEntity
8
CUTOUTS
100
AcDbPolyline
90
4
70
1
43
0.0
10
51.922455378278691
20
-49.901930284479619
10
57.118607800985316
20
-46.901930284479612
10
85.028607800985299
20
-95.243468323727001
10
79.832455378278681
20
-98.243468323727001
0
LWPOLYLINE
5
113
100
AcDbEntity
8
PERIMETER
100
AcDbPolyline
90
12
70
1
43
0.0
10
34.650245744663749
20
-135.88457167651481
10
100.36359598231627
20
-97.934295881342024
10
135.00461392656109
20
-37.934292776004916
10
134.99538612614205
20
37.950275795172701
10
100.3543681818973
20
97.950278900509829
10
34.631790143825839
20
135.88457167651472
10
-34.650245744663707
20
135.88457167651481
10
-100.3635959823163
20
97.93429588134201
10
-135.00461392656109
20
37.934292776004895
10
-134.99538612614205
20
-37.950275795172729
10
-100.35436818189734
20
-97.950278900509858
10
-34.631790143825789
20
-135.88457167651472
0
ENDSEC
0
SECTION
2
OBJECTS
0
DICTIONARY
5
C
100
AcDbDictionary
3
ACAD_GROUP
350
D
3
ACAD_MLINESTYLE
350
17
0
DICTIONARY
5
D
100
AcDbDictionary
0
DICTIONARY
5
1A
330
C
100
AcDbDictionary
0
DICTIONARY
5
17
100
AcDbDictionary
0
ENDSEC
0
EOF
